<mxfile host="app.diagrams.net" agent="Mozilla/5.0 (Windows NT 10.0; Win64; x64) AppleWebKit/537.36 (KHTML, like Gecko) Chrome/127.0.0.0 Safari/537.36 OPR/113.0.0.0" version="24.8.3">
  <diagram name="Página-1" id="PzIkFmMJWcv0uVdFRnH7">
    <mxGraphModel dx="1393" dy="3134" grid="1" gridSize="10" guides="1" tooltips="1" connect="1" arrows="1" fold="1" page="1" pageScale="1" pageWidth="827" pageHeight="1169" math="0" shadow="0">
      <root>
        <mxCell id="0" />
        <mxCell id="1" parent="0" />
        <mxCell id="nqrlKnWo9ZjOSiA1b5VG-3" style="edgeStyle=orthogonalEdgeStyle;rounded=0;orthogonalLoop=1;jettySize=auto;html=1;exitX=1;exitY=0.5;exitDx=0;exitDy=0;entryX=0;entryY=0.5;entryDx=0;entryDy=0;" edge="1" parent="1" source="nqrlKnWo9ZjOSiA1b5VG-1" target="nqrlKnWo9ZjOSiA1b5VG-2">
          <mxGeometry relative="1" as="geometry" />
        </mxCell>
        <mxCell id="nqrlKnWo9ZjOSiA1b5VG-1" value="INICIO" style="ellipse;whiteSpace=wrap;html=1;" vertex="1" parent="1">
          <mxGeometry x="20" y="-1160" width="120" height="80" as="geometry" />
        </mxCell>
        <mxCell id="nqrlKnWo9ZjOSiA1b5VG-2" value="INFORMAR ATIVO" style="rounded=1;whiteSpace=wrap;html=1;" vertex="1" parent="1">
          <mxGeometry x="180" y="-1150" width="120" height="60" as="geometry" />
        </mxCell>
        <mxCell id="nqrlKnWo9ZjOSiA1b5VG-15" style="edgeStyle=orthogonalEdgeStyle;rounded=0;orthogonalLoop=1;jettySize=auto;html=1;exitX=1;exitY=0;exitDx=0;exitDy=0;entryX=0;entryY=0.5;entryDx=0;entryDy=0;" edge="1" parent="1" source="nqrlKnWo9ZjOSiA1b5VG-6" target="nqrlKnWo9ZjOSiA1b5VG-14">
          <mxGeometry relative="1" as="geometry" />
        </mxCell>
        <mxCell id="nqrlKnWo9ZjOSiA1b5VG-6" value="INPUT" style="swimlane;fontStyle=0;childLayout=stackLayout;horizontal=1;startSize=30;horizontalStack=0;resizeParent=1;resizeParentMax=0;resizeLast=0;collapsible=1;marginBottom=0;whiteSpace=wrap;html=1;" vertex="1" parent="1">
          <mxGeometry x="410" y="-1160" width="620" height="180" as="geometry" />
        </mxCell>
        <mxCell id="nqrlKnWo9ZjOSiA1b5VG-7" value="LOCAL DE ORIGEM (OBRIGATORIO)" style="text;strokeColor=none;fillColor=none;align=left;verticalAlign=middle;spacingLeft=4;spacingRight=4;overflow=hidden;points=[[0,0.5],[1,0.5]];portConstraint=eastwest;rotatable=0;whiteSpace=wrap;html=1;" vertex="1" parent="nqrlKnWo9ZjOSiA1b5VG-6">
          <mxGeometry y="30" width="620" height="30" as="geometry" />
        </mxCell>
        <mxCell id="nqrlKnWo9ZjOSiA1b5VG-8" value="LOCAL DE DESTINO (OBRIGATORIO)" style="text;strokeColor=none;fillColor=none;align=left;verticalAlign=middle;spacingLeft=4;spacingRight=4;overflow=hidden;points=[[0,0.5],[1,0.5]];portConstraint=eastwest;rotatable=0;whiteSpace=wrap;html=1;" vertex="1" parent="nqrlKnWo9ZjOSiA1b5VG-6">
          <mxGeometry y="60" width="620" height="30" as="geometry" />
        </mxCell>
        <mxCell id="nqrlKnWo9ZjOSiA1b5VG-12" value="QUANTIDADE (OBRIGATORIO)" style="text;strokeColor=none;fillColor=none;align=left;verticalAlign=middle;spacingLeft=4;spacingRight=4;overflow=hidden;points=[[0,0.5],[1,0.5]];portConstraint=eastwest;rotatable=0;whiteSpace=wrap;html=1;" vertex="1" parent="nqrlKnWo9ZjOSiA1b5VG-6">
          <mxGeometry y="90" width="620" height="30" as="geometry" />
        </mxCell>
        <mxCell id="nqrlKnWo9ZjOSiA1b5VG-9" value="USUARIO QUE REALIZOU A MOVIMENTAÇÃO (OBRIGATORIO)" style="text;strokeColor=none;fillColor=none;align=left;verticalAlign=middle;spacingLeft=4;spacingRight=4;overflow=hidden;points=[[0,0.5],[1,0.5]];portConstraint=eastwest;rotatable=0;whiteSpace=wrap;html=1;" vertex="1" parent="nqrlKnWo9ZjOSiA1b5VG-6">
          <mxGeometry y="120" width="620" height="30" as="geometry" />
        </mxCell>
        <mxCell id="nqrlKnWo9ZjOSiA1b5VG-11" value="DATA E HORA (OBRIGATORIO)" style="text;strokeColor=none;fillColor=none;align=left;verticalAlign=middle;spacingLeft=4;spacingRight=4;overflow=hidden;points=[[0,0.5],[1,0.5]];portConstraint=eastwest;rotatable=0;whiteSpace=wrap;html=1;" vertex="1" parent="nqrlKnWo9ZjOSiA1b5VG-6">
          <mxGeometry y="150" width="620" height="30" as="geometry" />
        </mxCell>
        <mxCell id="nqrlKnWo9ZjOSiA1b5VG-13" style="edgeStyle=orthogonalEdgeStyle;rounded=0;orthogonalLoop=1;jettySize=auto;html=1;exitX=1;exitY=0.5;exitDx=0;exitDy=0;entryX=0;entryY=0.111;entryDx=0;entryDy=0;entryPerimeter=0;" edge="1" parent="1" source="nqrlKnWo9ZjOSiA1b5VG-2" target="nqrlKnWo9ZjOSiA1b5VG-6">
          <mxGeometry relative="1" as="geometry" />
        </mxCell>
        <mxCell id="nqrlKnWo9ZjOSiA1b5VG-17" style="edgeStyle=orthogonalEdgeStyle;rounded=0;orthogonalLoop=1;jettySize=auto;html=1;exitX=1;exitY=0.5;exitDx=0;exitDy=0;entryX=0;entryY=0.5;entryDx=0;entryDy=0;" edge="1" parent="1" source="nqrlKnWo9ZjOSiA1b5VG-14" target="nqrlKnWo9ZjOSiA1b5VG-16">
          <mxGeometry relative="1" as="geometry" />
        </mxCell>
        <mxCell id="nqrlKnWo9ZjOSiA1b5VG-14" value="SALVAR" style="rounded=1;whiteSpace=wrap;html=1;" vertex="1" parent="1">
          <mxGeometry x="1170" y="-1110" width="120" height="60" as="geometry" />
        </mxCell>
        <mxCell id="nqrlKnWo9ZjOSiA1b5VG-18" style="edgeStyle=orthogonalEdgeStyle;rounded=0;orthogonalLoop=1;jettySize=auto;html=1;exitX=0.5;exitY=1;exitDx=0;exitDy=0;" edge="1" parent="1" source="nqrlKnWo9ZjOSiA1b5VG-16" target="nqrlKnWo9ZjOSiA1b5VG-19">
          <mxGeometry relative="1" as="geometry">
            <mxPoint x="1420" y="-840" as="targetPoint" />
          </mxGeometry>
        </mxCell>
        <mxCell id="nqrlKnWo9ZjOSiA1b5VG-20" style="edgeStyle=orthogonalEdgeStyle;rounded=0;orthogonalLoop=1;jettySize=auto;html=1;exitX=1;exitY=0.5;exitDx=0;exitDy=0;" edge="1" parent="1" source="nqrlKnWo9ZjOSiA1b5VG-16" target="nqrlKnWo9ZjOSiA1b5VG-21">
          <mxGeometry relative="1" as="geometry">
            <mxPoint x="1570" y="-1080" as="targetPoint" />
          </mxGeometry>
        </mxCell>
        <mxCell id="nqrlKnWo9ZjOSiA1b5VG-16" value="VALIDAÇAO DE CAMPOS" style="rhombus;whiteSpace=wrap;html=1;" vertex="1" parent="1">
          <mxGeometry x="1350" y="-1150" width="140" height="140" as="geometry" />
        </mxCell>
        <mxCell id="nqrlKnWo9ZjOSiA1b5VG-26" style="edgeStyle=orthogonalEdgeStyle;rounded=0;orthogonalLoop=1;jettySize=auto;html=1;exitX=0;exitY=0.5;exitDx=0;exitDy=0;entryX=1;entryY=0.5;entryDx=0;entryDy=0;" edge="1" parent="1" source="nqrlKnWo9ZjOSiA1b5VG-19" target="nqrlKnWo9ZjOSiA1b5VG-25">
          <mxGeometry relative="1" as="geometry" />
        </mxCell>
        <mxCell id="nqrlKnWo9ZjOSiA1b5VG-19" value="SALVAR MOVIMENTAÇAOI" style="rounded=1;whiteSpace=wrap;html=1;" vertex="1" parent="1">
          <mxGeometry x="1360" y="-870" width="120" height="60" as="geometry" />
        </mxCell>
        <mxCell id="nqrlKnWo9ZjOSiA1b5VG-21" value="INFORMAR QUE DEVE SE PREENCHER TODOS OS CAMPOS" style="rounded=1;whiteSpace=wrap;html=1;" vertex="1" parent="1">
          <mxGeometry x="1620" y="-1125" width="150" height="90" as="geometry" />
        </mxCell>
        <mxCell id="nqrlKnWo9ZjOSiA1b5VG-22" value="NAO" style="rounded=1;whiteSpace=wrap;html=1;fillColor=#fa6800;strokeColor=#C73500;fontColor=#000000;" vertex="1" parent="1">
          <mxGeometry x="1530" y="-1110" width="50" height="20" as="geometry" />
        </mxCell>
        <mxCell id="nqrlKnWo9ZjOSiA1b5VG-25" value="INFORMAR QUE AS MUDANÇAS FORAM SALVAS" style="rounded=1;whiteSpace=wrap;html=1;" vertex="1" parent="1">
          <mxGeometry x="1190" y="-870" width="120" height="60" as="geometry" />
        </mxCell>
      </root>
    </mxGraphModel>
  </diagram>
</mxfile>
